<svg width="36" height="36" viewBox="0 0 36 36" fill="none" xmlns="http://www.w3.org/2000/svg">
<path d="M32.3999 0.399902H3.5999C1.8319 0.399902 0.399902 1.8319 0.399902 3.5999V32.3999C0.399902 34.1679 1.8319 35.5999 3.5999 35.5999H19.5999V21.1999H14.7999V16.3999H19.5999V13.8223C19.5999 8.9423 21.9775 6.7999 26.0335 6.7999C27.9759 6.7999 29.0031 6.9439 29.4895 7.0095V11.5999H26.7231C25.0015 11.5999 24.3999 12.5087 24.3999 14.3487V16.3999H29.4463L28.7615 21.1999H24.3999V35.5999H32.3999C34.1679 35.5999 35.5999 34.1679 35.5999 32.3999V3.5999C35.5999 1.8319 34.1663 0.399902 32.3999 0.399902Z" fill="#0A0A0A"/>
</svg>
