<svg width="61" height="61" viewBox="0 0 61 61" fill="none" xmlns="http://www.w3.org/2000/svg">
<g clip-path="url(#clip0_75_54)">
<path d="M19.7986 39.5965C23.0493 39.5965 25.6845 36.9613 25.6845 33.7105C25.6845 30.4598 23.0493 27.8246 19.7986 27.8246C16.5478 27.8246 13.9126 30.4598 13.9126 33.7105C13.9126 36.9613 16.5478 39.5965 19.7986 39.5965Z" fill="#0A0A0A"/>
<path d="M19.7984 40.6667C15.9629 40.6667 12.8423 37.546 12.8423 33.7105C12.8423 29.875 15.9629 26.7544 19.7984 26.7544C23.6339 26.7544 26.7546 29.875 26.7546 33.7105C26.7546 37.546 23.6339 40.6667 19.7984 40.6667ZM19.7984 28.8947C17.1433 28.8947 14.9826 31.0554 14.9826 33.7105C14.9826 36.3656 17.1433 38.5263 19.7984 38.5263C22.4535 38.5263 24.6142 36.3656 24.6142 33.7105C24.6142 31.0554 22.4535 28.8947 19.7984 28.8947Z" fill="#0A0A0A"/>
<path d="M37.9914 39.5965C41.2422 39.5965 43.8774 36.9613 43.8774 33.7105C43.8774 30.4598 41.2422 27.8246 37.9914 27.8246C34.7407 27.8246 32.1055 30.4598 32.1055 33.7105C32.1055 36.9613 34.7407 39.5965 37.9914 39.5965Z" fill="#0A0A0A"/>
<path d="M37.9913 40.6667C34.1558 40.6667 31.0352 37.546 31.0352 33.7105C31.0352 29.875 34.1558 26.7544 37.9913 26.7544C41.8268 26.7544 44.9474 29.875 44.9474 33.7105C44.9474 37.546 41.8268 40.6667 37.9913 40.6667ZM37.9913 28.8947C35.3362 28.8947 33.1755 31.0554 33.1755 33.7105C33.1755 36.3656 35.3362 38.5263 37.9913 38.5263C40.6464 38.5263 42.8071 36.3656 42.8071 33.7105C42.8071 31.0554 40.6464 28.8947 37.9913 28.8947Z" fill="#0A0A0A"/>
<path d="M13.9125 34.2456C13.3207 34.2456 12.8423 33.7673 12.8423 33.1754C12.8423 24.9137 19.563 18.193 27.8247 18.193C28.4165 18.193 28.8949 18.6714 28.8949 19.2632C28.8949 19.855 28.4165 20.3333 27.8247 20.3333C20.7434 20.3333 14.9826 26.0941 14.9826 33.1754C14.9826 33.7673 14.5043 34.2456 13.9125 34.2456Z" fill="#0A0A0A"/>
<path d="M32.1053 34.2456C31.5135 34.2456 31.0352 33.7673 31.0352 33.1754C31.0352 24.9137 37.7559 18.193 46.0176 18.193C46.6094 18.193 47.0878 18.6714 47.0878 19.2632C47.0878 19.855 46.6094 20.3333 46.0176 20.3333C38.9363 20.3333 33.1755 26.0941 33.1755 33.1754C33.1755 33.7673 32.6971 34.2456 32.1053 34.2456Z" fill="#0A0A0A"/>
</g>
<defs>
<clipPath id="clip0_75_54">
<rect width="61" height="61" fill="white"/>
</clipPath>
</defs>
</svg>
